<?xml version="1.0" encoding="utf-8"?>
<!-- Generator: Adobe Illustrator 16.0.4, SVG Export Plug-In . SVG Version: 6.00 Build 0)  -->
<!DOCTYPE svg PUBLIC "-//W3C//DTD SVG 1.1//EN" "http://www.w3.org/Graphics/SVG/1.1/DTD/svg11.dtd">
<svg version="1.1" id="Layer_1" xmlns="http://www.w3.org/2000/svg" xmlns:xlink="http://www.w3.org/1999/xlink" x="0px" y="0px"
	 width="601.875px" height="489.375px" viewBox="98.125 0 601.875 489.375" enable-background="new 98.125 0 601.875 489.375"
	 xml:space="preserve">
<path fill="#FFFFFF" d="M700,58.125C677.5,67.5,655,75,628.75,76.875c26.25-15,45-39.375,54.375-67.5
	c-24.375,15-50.625,24.375-78.75,30C583.75,15,550,0,516.25,0C448.75,0,392.5,54.375,392.5,123.75c0,9.375,1.875,18.75,3.75,28.125
	C293.125,146.25,203.125,97.5,141.25,22.5C130,41.25,124.375,61.875,124.375,84.375c0,43.125,22.5,80.625,54.375,103.125
	c-20.625,0-39.375-5.625-56.25-15v1.875c0,60,43.125,108.75,99.375,120c-11.25,1.875-20.625,3.75-31.875,3.75
	c-7.5,0-15,0-22.5-1.875c15,48.75,61.875,84.375,114.375,86.25c-41.25,33.75-95.625,52.5-153.75,52.5c-9.375,0-20.625,0-30-1.875
	c54.375,35.625,120,56.25,189.375,56.25c226.875,0,350.625-187.5,350.625-350.625c0-5.625,0-11.25,0-15
	C662.5,105,683.125,82.5,700,58.125z"/>
</svg>
