<?xml version="1.0"?>
<svg xmlns="http://www.w3.org/2000/svg" viewBox="0 0 26 26" enable-background="new 0 0 26 26" fill="#a0a7b2">
    <path d="M 5.9375 3.625 C 5.459375 3.671875 5 4.06875 5 4.59375 L 5 6.40625 C 5 6.80625 5.19375 7.1125 5.59375 7.3125 L 16.96875 13 L 5.59375 18.6875 C 5.19375 18.8875 5 19.19375 5 19.59375 L 5 21.40625 C 5 22.10625 5.80625 22.6125 6.40625 22.3125 L 20.40625 15.3125 C 20.80625 15.1125 21 14.80625 21 14.40625 L 21 13.40625 L 21 12.59375 L 21 11.59375 C 21 11.19375 20.70625 10.8875 20.40625 10.6875 L 6.40625 3.6875 C 6.25625 3.6125 6.096875 3.609375 5.9375 3.625 z"/>
</svg>
